<svg width="129" height="43" viewBox="0 0 129 43" fill="none" xmlns="http://www.w3.org/2000/svg">
<rect x="44.8123" y="41.0386" width="9.13438" height="25.3479" rx="4.56719" transform="rotate(-90 44.8123 41.0386)" fill="white"/>
<rect x="44.4338" y="2.55762" width="9.07986" height="38.481" rx="4.53993" fill="white"/>
<rect x="72.4302" y="10.5259" width="8.51237" height="30.5127" rx="4.25618" fill="white"/>
<rect x="72.4302" y="0.0311279" width="8.51237" height="8.16264" rx="4.08132" fill="white"/>
<rect x="87.374" y="10.5259" width="8.51237" height="30.5127" rx="4.25618" fill="white"/>
<rect width="8.61356" height="34.5841" rx="4.30678" transform="matrix(-0.745843 -0.666122 0.645916 -0.763408 106.662 42.6654)" fill="white"/>
<rect width="8.60953" height="34.6002" rx="4.30477" transform="matrix(0.757399 -0.652953 0.632556 0.774514 100.415 16.2017)" fill="white"/>
<rect x="87.374" y="0.0311279" width="8.51237" height="8.16264" rx="4.08132" fill="white"/>
<ellipse cx="20.6938" cy="21.3123" rx="20.1459" ry="21.2812" fill="white"/>
<path d="M28.1657 33.2646C35.827 40.4555 20.4006 47.6952 8.1468 38.2434C4.59939 35.5071 1.11548 30.3748 1.11548 26.4624C1.11548 19.9518 7.45247 11.5948 13.5056 17.4252C13.5056 18.2168 28.1657 27.2171 28.1657 33.2646Z" fill="white" fill-opacity="0.439216"/>
<path d="M39.9242 18.1055C40.9528 20.9236 41.9887 26.8761 36.0162 35.111C29.7438 43.7595 14.198 46.3655 20.5349 29.7664C20.5349 26.3317 25.0659 23.2558 30.6552 23.2558C36.2444 23.2558 38.7892 14.9959 39.9242 18.1055Z" fill="white" fill-opacity="0.419608"/>
<path d="M13.1273 1.48869C21.942 -1.71806 29.8516 0.386873 35.3541 6.54175C42.4631 14.4937 44.4321 29.6569 28.2781 23.1315C24.9354 23.1315 21.942 18.4658 21.942 12.7103C21.942 6.9548 10.0798 2.59739 13.1273 1.48869Z" fill="white"/>
<path d="M1.3992 28.6003C-1.722 19.5441 0.546202 11.3168 6.53688 5.66349C14.2766 -1.64036 29.0354 -3.6633 22.6841 12.9335C22.6841 16.3677 18.1428 19.4433 12.5409 19.4433C6.93891 19.4433 2.47832 31.7314 1.3992 28.6003Z" fill="white"/>
<ellipse cx="22.8694" cy="19.3687" rx="11.3498" ry="12.1468" fill="#142D3F"/>
<ellipse cx="22.9638" cy="19.3688" rx="8.98527" ry="9.42591" fill="white"/>
<path d="M40.8399 20.6321C40.9344 21.7982 40.6507 23.936 40.6507 24.1303C40.6507 24.3987 39.894 21.8128 39.894 20.6321C39.894 19.4514 40.0112 16.8423 40.2724 16.8423C40.4615 16.7451 40.8399 19.4514 40.8399 20.6321Z" fill="white"/>
</svg>
