<svg width="682" height="451" viewBox="0 0 682 451" fill="none" xmlns="http://www.w3.org/2000/svg">
<path d="M217.607 99.9999C217.607 99.9999 218.43 98.8055 220.265 97.0267C220.85 96.5809 222.391 96.0423 222.6 95.7681C236.894 87.3161 250.495 77.3672 266.958 73.3787C275.809 71.2344 284.911 70.1329 294.275 68.4039C296.66 68.219 298.67 68.191 301.487 68.1608C303.352 68.1057 304.409 68.0528 305.466 68C305.87 68.0958 306.274 68.1916 307.339 68.432C314.511 69.8454 321.156 70.6482 327.508 72.4742C343.682 77.1238 357.061 86.5663 369.165 97.9835C369.165 97.9835 369.198 98.0328 369.261 98.3723C373.634 104.434 377.943 110.156 382.272 116.201C382.492 116.899 382.693 117.274 382.985 118.161C383.138 119.014 383.2 119.355 382.839 119.547C376.471 116.874 370.526 114.35 364.277 111.641C355.031 106.03 345.054 104.346 334.55 103.183C332.696 102.96 331.165 102.951 329.285 102.84C328.452 102.745 327.969 102.753 327.267 102.658C327.048 102.557 326.577 102.658 326.168 102.547C302.329 101.998 278.899 101.559 255.035 100.984C247.652 101.528 240.702 102.207 233.6 102.638C233.136 102.16 212.969 106.519 212.897 106C217.286 104.894 238.556 86.1945 243.107 85.3834C244.57 85.3853 254.244 92.3817 255.764 92.3834C259.256 92.3832 256.421 98.6705 259.927 98.6731C270.85 98.7052 233.875 88.4709 244.305 88.9964C264.243 90.0008 331.606 101.371 351.603 103.038C360.064 106.8 253.918 90.0974 262.305 93.4999C244.744 68.3959 293.062 78.6044 262.305 75.4999C259.493 75.4889 267.892 75.4999 297.082 70.6425C262.305 85.3833 256.763 81.4964 255.035 81.4999C254.255 81.5024 290.924 70.658 290.256 70.7584C289.756 71.0313 246.387 93.1922 245.843 93.4999C241.184 94.1672 281.796 73.364 277.607 74.2409C272.371 75.3368 260.22 94.4412 255.035 95.7681C254.657 95.8649 259.687 78.1924 259.014 78.5979C274.607 122.383 245.233 85.4826 238.569 88.9964C232.51 92.1905 229.998 100.335 223.897 103.5C223.822 103.411 210.062 106.644 212.897 106C210.562 106.531 217.426 100.291 217.607 99.9999Z" fill="#2E9CA1"/>
<path d="M456.825 87.7925C455.072 88.2061 453.159 88.2962 450.582 88.2467C449.105 89.1784 448.293 90.2497 447.152 91.2057C445.471 91.0832 444.119 91.076 442.766 91.0687C444.966 84.1807 449.319 79.0103 455.124 74.7838C457.602 72.9796 459.506 70.3873 461.402 67.82C461.134 67.487 461.228 67.5067 461.228 67.5067C463.639 64.8627 466.051 62.2188 468.733 59.3865C469.148 60.8336 469.29 62.4691 469.447 64.2638C468.045 66.266 463.065 66.7353 466.442 71.4193C463.927 73.8765 461.282 76.4495 458.164 78.1613C452.387 81.3331 452.023 82.6126 456.825 87.7925Z" fill="#1D303A"/>
<path d="M473.939 112.08C468.486 107.166 463.033 102.252 457.172 96.8581C454.69 93.6564 452.617 90.9341 450.897 88.241C453.162 88.1801 454.484 87.5901 456.397 87.5C456.948 87.7344 458.088 88.4688 458.887 89.2792C461.453 91.7903 463.804 93.6893 466.084 95.6702C468.546 97.8097 470.701 100.404 473.414 102.132C479.719 106.148 486.342 109.663 492.684 113.623C493.918 114.394 494.466 116.266 495.555 117.985C488.936 118.683 483.934 117.48 479.531 113.518C478.262 112.376 475.835 112.523 473.939 112.08Z" fill="#1E4350"/>
<path d="M473.897 112C475.613 112.162 478.262 112.376 479.531 113.518C483.934 117.48 488.936 118.683 495.555 117.985C494.466 116.266 493.918 114.394 492.684 113.623C486.342 109.663 479.719 106.148 473.414 102.132C470.701 100.404 468.546 97.8096 466.084 95.6702C463.804 93.6893 461.453 91.7903 459.065 89.5298C461.348 90.4609 463.699 91.7174 466.428 93.0532C466.805 93.1325 467.199 93.4153 467.396 93.5562C470.887 95.9197 474.261 98.0333 477.459 100.387C485.034 105.962 492.525 111.651 499.801 117.657C495.601 119.44 495.144 121.328 497.998 123.987C499.082 124.997 499.933 126.258 500.891 127.404C500.223 127.165 499.556 126.925 498.538 126.618C490.224 121.914 482.039 116.917 473.897 112Z" fill="#1E4350"/>
<path d="M501.062 127.677C499.933 126.258 499.082 124.997 497.997 123.987C495.144 121.328 493.048 118.468 497.397 117C497.795 116.953 500.7 117.839 500.922 118.306C501.977 119.158 502.81 119.541 503.643 119.925C510.008 124.849 515.766 130.302 520.348 138.677C513.139 134.631 507.187 131.291 501.062 127.677Z" fill="#1E4350"/>
<path d="M359.724 158.544C345.778 153.533 331.362 151.321 316.617 152.348C306.677 153.041 296.805 154.705 286.893 155.849C285.005 156.067 283.07 155.88 280.996 154.948C286.401 152.943 291.807 150.938 297.84 148.705C298.854 148.226 299.24 147.975 299.626 147.725C300.937 147.437 302.248 147.149 304.087 146.666C305.34 146.382 306.064 146.294 307.06 146.483C308.308 146.895 309.319 147.265 310.255 147.127C320.215 145.658 330.127 143.756 340.129 142.703C346.946 141.986 353.886 142.31 360.768 142.395C364.24 142.438 367.715 142.905 371.171 143.323C374.449 143.72 379.562 142.926 380.397 148C377.908 148.759 374.926 148.715 372.071 149.741C376.672 152.839 379.184 152.675 383.823 150.844C386.625 149.738 391.033 147.834 392.491 149.023C399.248 154.535 407.899 154.339 415.354 157.545C417.771 158.585 421.644 156.236 425.249 155.373C426.403 155.552 429.634 156.958 430.397 157.545C431.069 160.393 430.074 162.148 430.397 164.706C428.152 166.728 425.365 168.217 423.566 170.274C422.547 171.44 421.247 172.775 421.046 174.174C419.843 182.516 419.031 190.916 417.776 199.249C417.616 200.311 415.483 202.029 414.52 201.872C400.093 199.521 385.732 196.755 371.303 194.414C363.857 193.206 357.099 190.027 349.221 189.414C335.783 188.367 322.583 184.29 309.273 181.531C307.612 181.187 305.894 181.119 304.256 180.831C304.31 180.74 304.151 180.884 304.134 180.512C301.994 179.503 299.871 178.865 297.992 177.967C306.961 175.011 297.002 172.985 297.973 170.515C299.374 167.72 305.357 168.771 302.897 162.5C308.085 162.48 314.139 163.484 318.841 163.112C320.884 162.951 321.897 161.201 324.815 160.673C328.201 160.694 331.587 160.716 335.566 161.201C337.683 162.188 339.179 163.046 340.737 163.177C348.579 163.837 356.436 164.321 364.29 164.829C365.743 164.923 367.208 164.842 368.667 164.842C368.739 164.797 368.81 164.751 368.882 164.706C370.704 164.706 372.526 164.706 374.348 164.706C373.353 163.058 372.649 160.332 371.307 159.97C367.588 158.968 363.604 158.95 359.724 158.544Z" fill="#153146"/>
<path d="M241.672 124.322C241.081 124.444 240.49 124.566 239.181 124.494C237.883 124.248 237.304 124.194 236.968 123.845C242.96 120.277 250.511 124.635 256.212 119.172C266.25 119.171 275.822 119.29 285.387 119.072C287.464 119.024 289.513 117.765 291.575 117.064C291.478 116.503 291.381 115.942 291.284 115.381C283.17 113.213 275.056 111.045 266.941 108.878C266.938 108.448 266.935 108.019 266.932 107.59C270.484 107.59 274.036 107.62 277.587 107.583C283.311 107.523 289.034 107.418 295.133 107.269C296.263 107.272 297.017 107.337 297.884 107.764C304.761 109.133 311.514 110.909 318.289 110.994C333.91 111.189 349.312 112.193 364.227 117.311C365.282 117.673 366.718 116.921 368.268 116.738C369.09 117.037 369.62 117.286 370.117 117.769C370.346 117.951 370.608 117.899 371.169 117.892C371.974 118.249 372.481 118.56 372.987 119.251C374.586 120.811 376.059 122.243 377.809 123.124C383.748 126.113 384.015 127.252 381.418 131.308C376.63 130.471 372.284 129.347 367.87 128.895C359.239 128.012 350.569 127.504 341.915 126.841C340.46 126.73 339.005 126.619 336.986 126.133C334.916 125.815 333.41 125.872 331.905 125.928C329.479 125.767 327.052 125.606 323.999 125.062C321.561 124.693 319.75 124.707 317.94 124.721C317.105 124.707 316.27 124.693 314.755 124.409C312.014 124.016 309.952 123.893 307.89 123.77C305.797 123.701 303.703 123.633 300.947 123.148C286.864 122.546 273.445 122.348 260.024 122.214C259.277 122.206 258.524 122.732 257.774 123.01C254.655 123.29 251.535 123.57 247.717 123.592C245.235 123.664 243.454 123.993 241.672 124.322Z" fill="#09819D"/>
<path d="M391.657 43.4991C393.428 44.4533 395.2 45.4075 397.51 46.6755C400.852 48.4631 403.657 49.9369 406.461 51.4107C406.859 51.7541 407.257 52.0976 408.113 52.7571C409.492 53.612 410.412 54.1507 411.332 54.6895C411.332 54.6895 411.404 54.6926 411.58 55.0048C417.998 60.6313 424.24 65.9456 430.482 71.26C431.279 72.0608 432.076 72.8617 433.384 74.025C435.148 75.1007 436.401 75.8139 437.655 76.5271C440.271 77.3071 442.887 78.087 445.915 78.9284C446.326 78.9899 446.666 79.353 446.666 79.353C440.709 84.5202 440.875 84.2161 434.296 80.622C428.354 77.3758 421.992 74.8995 415.82 72.0725C406.777 67.9305 397.739 63.7785 388.385 59.9254C388.072 60.22 388.107 60.1407 388.107 60.1407C385.639 58.1351 383.171 56.1296 380.38 54.0195C372.915 47.9455 365.744 42.01 358.66 35.9727C357.497 34.9813 356.714 33.5425 355.897 32C362.277 33.5696 368.508 35.4821 374.763 37.3064C376.268 37.7452 377.858 37.8911 379.571 37.8293C381.798 38.7929 383.862 40.0988 386.518 41.6745C388.625 42.4625 390.141 42.9808 391.657 43.4991Z" fill="#1E4350"/>
<path d="M391.657 43.4991C393.428 44.4533 395.2 45.4075 397.51 46.6755C400.852 48.4631 403.657 49.9369 406.461 51.4107C406.859 51.7541 407.257 52.0976 408.113 52.7571C409.492 53.612 410.412 54.1507 411.332 54.6895C411.332 54.6895 411.404 54.6926 411.58 55.0048C417.998 60.6313 424.24 65.9456 430.482 71.26C431.279 72.0608 432.076 72.8617 433.384 74.025C435.148 75.1007 436.401 75.8139 437.655 76.5271C440.271 77.3071 442.887 78.087 445.915 78.9284C446.326 78.9899 446.666 79.353 446.666 79.353C440.709 84.5202 440.875 84.2161 434.296 80.622C428.354 77.3758 421.992 74.8995 415.82 72.0725C406.777 67.9305 397.739 63.7785 388.385 59.9254C388.072 60.22 388.107 60.1407 388.107 60.1407C385.639 58.1351 383.171 56.1296 380.38 54.0195C372.915 47.9455 365.744 42.01 358.66 35.9727C357.497 34.9813 356.714 33.5425 355.897 32C362.277 33.5696 368.508 35.4821 374.763 37.3064C376.268 37.7452 377.858 37.8911 379.571 37.8293C381.798 38.7929 383.862 40.0988 386.518 41.6745C388.625 42.4625 390.141 42.9808 391.657 43.4991Z" fill="#1E4350"/>
<path d="M304.897 179.311C306.588 179.507 307.612 180.739 309.273 181.083C322.583 183.842 335.783 187.919 349.222 188.966C357.099 189.579 363.857 192.758 371.303 193.966C385.732 196.307 400.093 199.073 414.521 201.425C415.483 201.582 417.616 199.863 417.776 198.801C419.032 190.468 419.843 182.069 421.046 173.726C421.247 172.327 422.547 170.992 423.566 169.826C425.365 167.769 427.338 165.866 429.741 164C430.242 164.102 430.558 164.414 430.416 164.727C427.892 170.312 425.51 175.585 422.96 181.224C420.344 189.219 427.162 202.386 429.741 210.5C417.404 208.63 397.41 203.524 385.897 200.5C384.882 200.233 383.12 199.411 381.397 199C379.225 198.714 378.496 198.284 377.033 198.143C377.033 198.143 376.796 198.129 376.428 197.945C374.715 197.559 373.369 197.357 372.023 197.156C368.961 196.495 365.899 195.835 362.201 195.047C360.993 194.903 360.422 194.887 359.851 194.87C351.441 192.721 343.03 190.572 333.926 188.232C330.323 187.421 327.414 186.802 324.505 186.182C324.505 186.182 324.332 186.141 323.991 185.952C323.026 185.72 322.4 185.677 321.775 185.634C321.401 185.431 321.027 185.228 320.099 184.874C318.965 184.714 318.385 184.704 317.806 184.695C317.42 184.499 317.035 184.303 316.085 183.968C314.947 183.801 314.374 183.774 313.8 183.748C313.106 183.5 312.412 183.251 311.025 182.856C303.168 181.576 296.003 180.443 288.838 179.311C286.737 178.998 284.635 178.685 281.921 178.331C280.793 178.138 280.276 177.987 279.762 177.486C279.746 176.671 275.925 171.536 275.897 171.052C275.886 171.034 279.67 175.664 280.092 175.724C286.258 176.449 290.651 175.056 296.397 175.722C298.519 176.359 301.994 179.055 304.113 180.036C304.109 180.379 304.897 179.311 304.897 179.311Z" fill="#153146"/>
<path d="M443.651 104.005C439.662 111.089 435.807 118.275 428.644 123.778C425.661 126.19 423.163 128.164 420.666 130.138C417.676 132.5 416.896 134.5 414.871 136.5C413.396 138.5 412 139.5 410 143.5C408 145 408 145 407.5 145.5C404.5 147.5 405.5 144 406.5 143C407.5 140 414.226 132.441 414.871 128.607C414.965 128.156 415.07 128.062 415.07 128.062C419.19 122.803 423.31 117.544 427.41 111.86C427.39 111.434 427.449 111.456 427.449 111.456C431.021 107.065 434.592 102.673 438.222 97.9358C438.281 97.5903 438.274 97.5484 438.538 97.3878C438.928 96.8457 439.054 96.4641 439.376 95.9469C439.572 95.8113 439.615 95.3364 439.615 95.3364C440.492 94.0256 441.368 92.7148 442.505 91.2364C444.119 91.076 445.471 91.0832 447.13 91.6066C446.174 96.0833 444.913 100.044 443.651 104.005Z" fill="#1E4350"/>
<path d="M456.68 145.946C456.834 148.53 456.83 150.668 456.826 153.638C452.594 153.671 448.401 153.703 444.174 153.736C444.599 144.162 444.902 135.303 445.294 125.437C445.223 124.551 445.271 124.093 445.215 123.923C445.195 122.064 445.518 113.35 446.081 111.377C447.254 113.385 449.462 102.032 450.055 104.159C454.601 102.756 453.688 114.131 450.101 105.04C449.171 107.35 448.619 108.894 447.931 110.374C447.371 111.578 446.646 112.705 445.995 113.867C445.949 112.809 445.904 111.751 446.009 110C447.313 105.93 448.586 101.545 449.74 98.1672C449.29 98.1046 450.191 98.2298 449.74 98.1672C450.894 100.861 453.282 104.75 454.436 107.443C455.131 120.129 455.827 132.815 456.68 145.946Z" fill="#162D3F"/>
<path d="M148.913 146.115C150.256 145.155 151.6 144.196 153.45 143.412C154.414 143.734 155.018 144.146 155.309 143.987C159.902 141.472 164.539 139.019 168.979 136.251C170.994 134.995 172.671 133.153 174.375 131.451C177.383 128.445 180.969 128.427 183.445 130.973C180.856 132.733 178.139 134.581 175.422 136.428C175.732 137.055 182.91 132.809 183.22 133.437C189.853 129.314 197.522 130.851 204.72 130.437C200.572 132.253 189.478 135.922 185.594 137.484C185.376 137.629 185.158 137.774 184.532 138.014C184.123 138.109 184.028 138.151 184.028 138.151C169.752 144.089 155.477 150.027 141.201 155.966C141.099 155.692 140.998 155.419 140.897 155.146C143.099 152.767 145.301 150.388 147.629 147.702C147.755 147.395 147.742 147.334 148.021 147.263C148.504 146.834 148.709 146.474 148.913 146.115Z" fill="#187F9C"/>
<path d="M297.992 177.967C292.004 177.562 285.053 177.614 278.897 176.5C277.579 174.398 278.173 171.72 276.875 170.475C275.908 169.546 274.054 169.541 272.594 169.124C275.075 168.41 277.556 167.696 280.512 167.289C281.216 167.422 278.62 167.427 281.897 167C281.897 167 281.192 167.157 281.397 167.073C281.826 166.724 270.672 169.765 270.897 169.5C272.649 168.772 286.28 164.753 288.437 164.391C290.582 167.981 291.531 164.895 293.203 164.252C296.992 163.919 300.367 163.597 303.742 163.275C306.661 169.532 299.374 167.72 297.973 170.515C297.002 172.985 306.961 175.011 297.992 177.967Z" fill="#153146"/>
<path d="M412.202 151.159C416.428 152.432 426.685 155.498 430.897 157C427.998 157.977 417.771 158.585 415.354 157.545C407.899 154.339 399.248 154.535 392.491 149.023C391.033 147.834 386.625 149.738 383.823 150.844C379.184 152.675 376.672 152.839 372.071 149.741C374.926 148.715 377.02 147.962 379.859 147.198C381.696 146.194 382.788 145.201 383.881 144.208C385.962 144.409 388.124 144.319 390.111 144.864C397.399 146.865 404.628 149.078 412.202 151.159Z" fill="#153146"/>
<path d="M385.897 145.117C385.124 146.279 380.839 148.502 379.397 149.5C377.817 144.437 374.449 143.72 371.171 143.323C367.715 142.905 364.24 142.438 360.768 142.395C353.886 142.31 346.946 141.986 340.129 142.703C330.127 143.756 320.215 145.658 310.255 147.127C309.319 147.265 304.554 148.579 303.397 148C303.48 147.288 307.498 145.337 308.16 145.117C309.314 144.939 310.07 144.715 311.207 144.513C312.525 144.203 313.465 143.87 314.404 143.537C328.861 142.13 343.294 140.154 357.785 139.546C365.433 139.224 373.187 141.246 380.877 142.326C381.721 142.445 384.792 144.415 385.897 145.117Z" fill="#153146"/>
<path d="M381.829 131.325C384.015 127.252 383.748 126.113 377.809 123.124C376.059 122.243 363.627 116.016 362.397 114.5C366.469 115.608 381.132 121.848 385.032 123.407C385.229 123.521 385.681 123.463 385.681 123.463C385.681 123.463 385.636 123.519 385.794 123.78C386.454 124.23 386.955 124.42 387.456 124.61C387.456 124.61 387.537 124.609 387.681 124.86C388.139 125.183 388.453 125.256 388.767 125.329C388.767 125.329 388.828 125.195 388.877 125.598C392.867 128.123 396.455 130.378 400.397 132.5C400.524 132.797 401.214 134.655 401.677 135.262C401.946 134.72 401.985 136.071 401.677 135.262C397.86 135.563 394.416 135.716 390.972 135.868C390.513 135.838 390.055 135.808 389.248 135.327C386.543 133.693 384.186 132.509 381.829 131.325Z" fill="#187F9C"/>
<path d="M272.187 169.093C274.054 169.541 281.429 165.571 282.397 166.5C283.694 167.746 278.785 173.681 279.681 175.723C279.67 176.111 279.688 176.151 279.338 176.145C277.906 176.477 276.824 176.816 275.276 177.223C268.897 175.5 258.912 177.965 252.897 177.5C253.214 175.931 255.581 174.197 255.897 173C260.587 171.795 267.089 170.267 272.187 169.093Z" fill="#153146"/>
<path d="M359.397 158C363.037 158.161 367.588 158.968 371.307 159.97C372.649 160.332 373.353 163.058 374.348 164.706C372.526 164.706 370.704 164.706 368.882 164.706C368.81 164.751 368.739 164.797 368.667 164.842C367.208 164.842 365.743 164.923 364.29 164.829C356.436 164.321 348.579 163.837 340.737 163.177C339.179 163.046 337.683 162.188 335.995 161.373C345.457 161.627 355.082 162.172 364.707 162.717C364.867 162.496 365.027 162.275 365.186 162.053C363.525 161.048 361.297 159.252 359.397 158Z" fill="#153146"/>
<path d="M384.397 125.5C387.165 126.701 386.543 133.693 388.944 135.159C379.607 133.46 370.26 131.289 360.831 129.566C354.804 128.465 348.656 128.027 342.239 127.066C350.569 127.504 359.239 128.012 367.87 128.895C372.284 129.347 379.609 124.663 384.397 125.5Z" fill="#09819D"/>
<path d="M492.652 27.1735C492.744 28.1068 492.85 29.3981 492.274 30.1977C486.076 38.8005 479.81 47.3545 473.454 55.8409C472.503 57.1101 470.996 57.9623 469.401 59.0626C470.317 55.9921 471.578 52.8662 473.217 49.5968C474.153 48.8958 474.711 48.3385 475.269 47.7811C478.811 43.1905 482.353 38.5998 485.644 33.6328C485.393 33.2564 485.48 33.2348 485.48 33.2348C487.769 31.2576 490.059 29.2805 492.652 27.1735Z" fill="#1D303A"/>
<path d="M258.136 123.177C258.524 122.732 259.277 122.206 260.024 122.214C273.445 122.348 286.864 122.546 300.567 123.051C286.733 123.362 272.615 123.353 258.136 123.177Z" fill="#09819D"/>
<path d="M304.2 163.261C300.367 163.597 295.708 165.484 291.897 165.5C291.442 164.983 292.708 163.207 292.689 162.996C303.095 162.137 313.501 161.277 324.361 160.546C322.826 161.525 320.883 162.951 318.841 163.112C314.139 163.484 309.389 163.241 304.2 163.261Z" fill="#153146"/>
<path d="M245.001 177.794C243.934 177.913 235.419 179.307 234.397 179C234.007 178.404 240.939 176.83 240.896 176.5C244.396 174.5 251.906 173.88 257.352 172.67C257.393 173.874 257.078 175.071 256.76 176.64C255.987 177.126 255.217 177.241 254.089 177.512C250.945 177.658 248.157 177.648 245.001 177.794Z" fill="#153146"/>
<path d="M381.897 133.5C385.117 133.113 387.784 130.788 391.897 130.5C383.82 123.725 393.987 128.717 400.397 132.5C401.519 133.944 405.307 139.268 406.429 140.711C406.677 140.346 406.182 141.077 406.429 140.711C404.17 140.07 401.91 139.429 399.167 138.853C398.683 138.918 398.538 139.062 398.371 138.755C397.764 138.357 397.324 138.267 396.586 138.057C395.866 137.903 395.442 137.868 395.019 137.833C393.819 137.334 383.32 134.233 381.897 133.5Z" fill="#09819D"/>
<path d="M241.314 176.265C241.769 176.645 241.823 176.972 241.86 177.546C237.44 178.649 233.047 179.504 228.34 180.258C232.317 178.844 236.609 177.529 241.314 176.265Z" fill="#153146"/>
<path d="M218.017 127.811C212.758 129.358 207.499 130.905 201.962 132.103C201.7 131.575 201.715 131.396 201.996 131.026C203.374 130.32 204.485 129.804 205.766 129.495C206.546 129.567 207.156 129.432 208.084 129.27C208.827 129.201 209.251 129.159 209.9 129.04C210.431 128.806 210.612 128.558 210.875 127.996C212.285 127.855 213.49 127.938 214.918 127.966C215.428 127.765 215.275 127.252 215.72 126.937C216.477 126.89 217.197 126.8 217.72 126.937C217.81 127.105 218.017 127.811 218.017 127.811Z" fill="#09819D"/>
<path d="M185.956 137.526C189.478 135.922 193.362 134.361 197.731 132.515C198.216 132.23 198.66 132.179 199.063 132.259C199.727 132.426 199.987 132.513 200.247 132.6C195.604 134.256 190.961 135.912 185.956 137.526Z" fill="#09819D"/>
<path d="M236.724 124.141C237.304 124.194 238.223 124.249 239.22 124.437C235.982 125.188 231.987 125.803 228.012 126.062C227.696 125.534 227.213 125.111 227.22 124.937C227.223 124.932 227.677 124.938 228.012 124.937C229.144 124.643 229.984 124.595 231.205 124.29C233.327 124.232 235.026 124.187 236.724 124.141Z" fill="#09819D"/>
<path d="M322.067 124.755C320.841 124.669 319.88 124.527 318.555 124.413C318.191 124.44 318.004 124.102 317.972 123.912C319.75 123.707 321.561 123.693 323.599 123.952C323.328 124.383 322.83 124.54 322.067 124.755Z" fill="#09819D"/>
<path d="M241.992 124.451C243.454 123.993 245.235 123.664 247.309 123.535C245.838 124.017 244.075 124.299 241.992 124.451Z" fill="#2E9CA1"/>
<path d="M308.188 123.997C309.952 123.893 312.014 124.016 314.354 124.282C312.584 124.358 310.536 124.292 308.188 123.997Z" fill="#2E9CA1"/>
<path d="M227.703 125.196C227.7 125.365 227.696 125.535 227.694 125.958C226.801 126.399 225.907 126.586 224.321 126.563C222.988 126.613 222.347 126.872 221.705 127.132C221.244 127.294 220.783 127.455 219.965 127.297C219.601 126.767 219.593 126.557 219.864 126.033C222.664 125.545 225.183 125.371 227.703 125.196Z" fill="#187F9C"/>
<path d="M332.156 126.128C333.41 125.872 334.916 125.815 336.632 126.032C335.365 126.313 333.887 126.321 332.156 126.128Z" fill="#2E9CA1"/>
<path d="M292.897 163C293.262 163.261 292.726 163.418 292.766 163.946C292.766 165.5 288.679 169.065 286.897 165.5C287.397 164 291.47 163.343 292.897 163Z" fill="#153146"/>
<path d="M221.91 127.255C222.347 126.872 222.988 126.613 223.989 126.46C223.604 126.837 222.86 127.107 221.91 127.255Z" fill="#2E9CA1"/>
<path d="M200.493 132.632C199.72 132.608 199.727 132.426 199.282 132.002C199.974 131.515 201.342 131.087 202.22 130.937C202.205 131.117 202.254 131.488 202.22 131.937C201.942 132.439 201.086 132.65 200.493 132.632Z" fill="#187F9C"/>
<path d="M299.258 147.647C299.24 147.975 298.854 148.226 298.111 148.465C298.132 148.159 298.511 147.864 299.258 147.647Z" fill="#EFF3F4"/>
<path d="M184.006 138.269C184.028 138.151 184.123 138.109 184.149 138.104C184.175 138.098 183.983 138.386 184.006 138.269Z" fill="#2E9CA1"/>
<path d="M219.93 125.804C219.939 126.014 220.224 126.912 220.22 127.437C220.343 127.082 218.925 127.842 218.72 127.437C218.525 126.811 218.535 126.445 218.732 126.202C218.919 126.18 219.93 125.804 219.93 125.804Z" fill="#09819D"/>
<path d="M218.835 126.357C218.825 126.578 218.815 126.799 218.806 127.354C218.807 127.687 218.428 127.85 218.223 127.831C218.017 127.811 217.18 127.309 217.22 126.937C217.493 126.303 218.485 126.331 218.835 126.357Z" fill="#187F9C"/>
<path d="M387.443 124.277C386.955 124.42 386.454 124.23 385.802 123.815C386.244 123.707 386.837 123.825 387.443 124.277Z" fill="#D5E1E5"/>
<path d="M388.664 125.079C388.453 125.256 388.139 125.183 387.697 124.897C387.899 124.732 388.23 124.781 388.664 125.079Z" fill="#D5E1E5"/>
<path d="M452.503 86.6048C452.535 86.6589 452.471 86.5508 452.503 86.6048Z" fill="#1E4350"/>
<path d="M427.397 156C430.418 155.655 437.396 158 441.897 158C439.368 161.208 434.897 159.5 432.397 163C431.325 163 430.614 165.201 430.084 165.5C430.084 165.5 430.242 164.549 430.084 164.393C429.26 161.734 428.069 158.848 427.397 156Z" fill="#153146"/>
<path d="M219.022 126.335C218.485 126.331 218.194 126.449 217.83 126.914C217.267 127.149 216.835 127.18 215.86 127.294C215.044 127.528 214.836 127.743 214.694 128.021C213.49 127.938 212.338 128.2 210.72 128.437C210.047 128.937 210.144 129.395 209.72 129.437C209.296 129.479 208.824 129.401 207.72 129.437C206.558 129.45 206.202 129.918 205.72 129.937C204.609 130.453 203.374 130.32 201.996 131.026C200.852 131.366 199.974 131.515 198.878 131.922C198.66 132.179 198.216 132.23 197.995 132.259C190.312 132.958 182.984 134.188 176.351 138.311C176.041 137.683 175.732 137.055 175.422 136.428C178.139 134.581 180.856 132.733 183.445 130.973C180.969 128.427 177.384 128.445 174.375 131.451C172.671 133.153 170.994 134.995 168.979 136.251C164.539 139.019 159.902 141.472 155.309 143.987C155.018 144.146 153.059 144.409 152.397 143.987C157.773 139.626 164.71 134.867 170.802 130.471C172.21 129.573 173.107 128.988 174.003 128.402C174.48 128.201 174.956 128 175.881 127.548C176.603 127.025 176.878 126.752 177.152 126.479C177.604 126.303 178.056 126.128 178.98 125.739C179.908 125.139 180.364 124.753 180.82 124.367C180.82 124.367 180.705 124.209 181.035 124.275C181.654 124.096 181.943 123.851 182.233 123.606C182.233 123.606 182.524 123.618 182.963 123.499C184.309 122.743 185.216 122.107 186.122 121.471C186.122 121.471 186.452 121.415 186.91 121.27C189.667 119.605 191.965 118.085 194.264 116.565C194.264 116.565 194.53 116.575 194.928 116.452C195.616 116.045 195.908 115.763 196.2 115.48C196.2 115.48 196.486 115.492 196.892 115.385C197.612 115.033 197.927 114.787 198.241 114.541C198.241 114.541 198.516 114.565 198.921 114.457C199.648 114.1 199.97 113.85 200.292 113.601C200.292 113.601 200.546 113.64 200.953 113.531C201.68 113.16 201.999 112.898 202.319 112.636C202.319 112.636 202.563 112.67 203.033 112.58C205.441 111.547 207.38 110.603 209.318 109.66C209.318 109.66 209.591 109.664 210.039 109.559C211.387 109.153 212.288 108.851 213.601 108.688C220.773 107.745 227.533 106.661 234.516 105.572C234.738 105.565 235.193 105.532 235.193 105.532C235.193 105.532 235.648 105.568 235.806 105.973C238.743 107.086 241.664 108.721 244.132 105.162C244.887 105.207 247.71 105.107 248.22 105.532C255.427 107.365 255.27 113.318 256.22 119.437C250.988 124.9 243.713 120.685 237.72 124.254C235.778 124.595 233.186 125.161 230.72 125.183C229.161 125.476 228.511 124.865 227.719 125.183C227.719 125.183 227.71 125.187 227.707 125.191C225.183 125.371 222.664 125.545 219.864 126.033C219.584 126.347 219.209 126.313 219.022 126.335Z" fill="#09819D"/>
<path d="M273.288 51.2814C276.845 52.1213 279.934 52.9754 283.024 53.8296C283.136 54.1417 283.247 54.4538 283.359 54.766C277.778 55.5846 270.364 56.5536 264.397 57C265.015 55.0513 268.09 53.3142 264.759 53.0212C262.4 52.8137 260.06 52.3934 257.711 52.0681C257.711 52.0681 254.891 52.2888 254.897 52.0681C259.921 51.8837 267.801 51.2592 273.288 51.2814Z" fill="#72C110"/>
<path d="M202.397 86C202.299 86.3485 185.761 99.1873 185.643 99.8078C184.391 100.874 183.159 101.668 181.744 102.723C178.848 104.681 176.134 106.379 173.421 108.077C173.112 107.848 172.705 109.229 172.397 109C174.152 106.244 176.004 101.878 177.836 98.7914C177.913 98.4614 203.618 73.0556 203.897 73C204.707 72.8608 179.514 98.147 180.426 98.1686C182.523 98.346 200.68 85.9278 202.397 86Z" fill="#91C842"/>
<path d="M193.875 116.474C191.966 118.085 189.667 119.605 187.02 121.143C188.942 119.569 191.214 117.976 193.875 116.474Z" fill="#D5E1E5"/>
<path d="M185.758 121.399C185.216 122.107 184.309 122.743 183.061 123.391C183.611 122.711 184.502 122.019 185.758 121.399Z" fill="#D5E1E5"/>
<path d="M173.626 128.341C173.107 128.988 172.21 129.573 170.987 130.185C171.523 129.567 172.385 128.923 173.626 128.341Z" fill="#D5E1E5"/>
<path d="M180.482 124.33C180.364 124.753 179.908 125.139 179.143 125.556C179.27 125.155 179.707 124.724 180.482 124.33Z" fill="#D5E1E5"/>
<path d="M148.638 146.249C148.709 146.474 148.504 146.834 147.994 147.279C147.914 147.038 148.139 146.711 148.638 146.249Z" fill="#FBFDFC"/>
<path d="M181.919 123.557C181.943 123.851 181.654 124.096 181.075 124.364C181.059 124.094 181.332 123.801 181.919 123.557Z" fill="#D5E1E5"/>
<path d="M195.875 115.468C195.908 115.763 195.616 116.045 195.014 116.35C194.985 116.067 195.268 115.762 195.875 115.468Z" fill="#D5E1E5"/>
<path d="M197.923 114.503C197.927 114.787 197.612 115.033 196.991 115.282C196.991 115.012 197.298 114.739 197.923 114.503Z" fill="#D5E1E5"/>
<path d="M199.964 113.552C199.97 113.85 199.648 114.099 199.014 114.355C199.013 114.075 199.325 113.789 199.964 113.552Z" fill="#D5E1E5"/>
<path d="M201.982 112.589C201.999 112.898 201.68 113.16 201.045 113.442C201.036 113.155 201.34 112.848 201.982 112.589Z" fill="#D5E1E5"/>
<path d="M176.838 126.471C176.878 126.752 176.603 127.025 176.035 127.337C176.002 127.072 176.262 126.767 176.838 126.471Z" fill="#D5E1E5"/>
<path d="M255.792 104.681C266.052 105.216 276.314 105.722 286.572 106.307C289.037 106.448 291.486 106.849 294.351 107.231C289.034 107.418 283.311 107.523 277.587 107.583C274.036 107.62 270.484 107.59 266.932 107.59C266.935 108.019 266.938 108.448 266.941 108.878C275.055 111.045 283.17 113.213 291.284 115.381C291.381 115.942 291.478 116.503 291.575 117.064C289.513 117.765 287.464 119.024 285.387 119.072C275.822 119.29 266.25 119.171 256.212 119.172C254.794 113.052 253.032 107.543 246.203 105.737C249.597 105.171 252.694 104.926 255.792 104.681Z" fill="#187F9C"/>
<path d="M255.897 104.5C278.138 103.974 342.318 108.524 364.557 115.011C366.098 115.717 367.037 116.202 367.976 116.687C366.718 116.921 365.282 117.673 364.227 117.311C349.312 112.193 333.91 111.189 318.289 110.994C311.514 110.909 262.773 105.869 255.897 104.5Z" fill="#187F9C"/>
<path d="M370.117 117.769C370.15 117.535 370.563 117.571 370.716 117.709C370.608 117.899 370.345 117.95 370.117 117.769Z" fill="#187F9C"/>
<path d="M444.624 123.271C444.806 123.339 444.853 123.512 444.829 123.942C444.668 123.925 444.579 123.649 444.624 123.271Z" fill="#D5E1E5"/>
<path d="M279.762 177.934C278.644 178.014 273.348 176.593 271.897 176.163C272.644 175.663 277.906 176.477 279.349 176.163C279.728 176.654 279.745 177.119 279.762 177.934Z" fill="#153146"/>
<path d="M304.256 180.831C304.202 180.923 304.109 180.827 304.13 180.855C304.151 180.884 304.31 180.74 304.256 180.831Z" fill="#F8FAFB"/>
<path d="M398.372 138.755C398.124 138.937 397.71 138.812 397.089 138.432C397.324 138.267 397.764 138.357 398.372 138.755Z" fill="#FBFDFC"/>
<path d="M205.766 129.495C206.079 129.269 206.561 129.25 207.404 129.263C207.156 129.432 206.546 129.567 205.766 129.495Z" fill="#187F9C"/>
<path d="M214.22 128.437C214.22 127.937 215.044 127.528 215.534 127.31C215.632 127.541 214.73 128.235 214.22 128.437Z" fill="#187F9C"/>
<path d="M209.9 129.04C209.801 128.828 209.993 128.593 210.461 128.316C210.612 128.558 210.431 128.806 209.9 129.04Z" fill="#187F9C"/>
<path d="M228.054 125.182C228.511 124.865 229.303 124.547 230.438 124.266C229.984 124.595 229.186 124.888 228.054 125.182Z" fill="#187F9C"/>
<path d="M382.562 117.701C382.872 117.836 383.2 118.293 383.356 118.95C382.983 118.775 382.782 118.399 382.562 117.701Z" fill="#D5E1E5"/>
<path d="M290.546 72.2585C290.655 72.4816 290.458 72.7282 289.955 72.9994C289.848 72.7786 290.045 72.5314 290.546 72.2585Z" fill="#06A2AD"/>
<path d="M187.537 87.9326C187.575 87.7226 187.869 88.0307 187.897 87.5C187.886 87.1793 187.86 86.7832 188.33 86.7679C188.97 86.3604 189.139 85.9683 189.308 85.5761C189.308 85.5761 189.419 85.2887 189.917 85.2266C193.476 82.1052 196.537 79.046 199.598 75.9868C200.144 75.4646 200.689 74.9425 201.849 74.2865C203.523 73.1131 204.582 72.0734 205.641 71.0337C206.038 70.6992 206.435 70.3646 207.43 69.9975C208.593 69.3656 209.157 68.7664 209.721 68.1672C211.074 67.1445 212.427 66.1218 214.419 65.0363C215.627 64.403 216.194 63.8326 216.762 63.2623C221.682 61.0854 226.602 58.9086 232.294 56.8269C234.994 56.1545 236.922 55.3868 238.851 54.6191C239.258 54.4929 239.664 54.3668 240.645 54.4655C242.75 54.2486 244.282 53.8068 245.813 53.3651C246.537 53.2588 247.26 53.1525 248.594 53.3334C251.079 53.2054 252.953 52.79 254.827 52.3747C255.546 52.2685 257.314 52.1002 258.397 52C261.109 52.3314 262.4 52.8137 264.759 53.0212C268.09 53.3142 266.846 54.901 265.799 56.8045C264.897 57 264.759 57.1677 263.397 57.5C260.116 58.3003 257.304 59.2276 254.744 60.173C254.744 60.173 254.418 60.3254 253.896 60.2781C252.847 60.5974 252.32 60.964 251.794 61.3306C251.794 61.3306 251.521 61.4972 251.071 61.4461C250.321 61.6234 250.022 61.8518 249.723 62.0802C239.465 67.2266 229.208 72.3729 218.261 77.4916C216.966 78.0512 216.36 78.6383 215.754 79.2255C215.091 79.6161 214.427 80.0066 213.122 80.3707C211.641 81.0399 210.802 81.7354 209.963 82.431C209.963 82.431 209.989 82.2688 209.685 82.3498C209.166 82.7073 208.951 82.9838 208.736 83.2604C208.736 83.2604 208.475 83.453 208.007 83.4583C207.288 83.7616 207.038 84.0596 206.787 84.3577C206.787 84.3577 206.551 84.5716 206.011 84.4843C201.786 86.3103 197.983 88.0384 194.475 90.2359C193.217 91.0241 192.667 92.9445 191.794 94.3482C191.396 94.6666 190.999 94.9849 189.929 95.306C186.875 95.0029 185.225 95.4567 186.006 98.4375C186.006 98.4375 185.984 98.4674 185.971 98.4789C184.24 98.4183 182.523 98.346 180.426 98.1686C180.383 97.2223 180.72 96.3811 181.689 95.3081C183.088 93.7542 183.854 92.4322 184.62 91.1101C184.62 91.1101 184.659 91.135 184.996 91.1052C186.067 90.0278 186.802 88.9802 187.537 87.9326Z" fill="#72C110"/>
<path d="M205.397 71.5C202.65 74.513 193.476 82.1052 190.052 85.1535C191.615 83.0022 193.801 80.9289 195.897 78.5C197.122 77.5231 204.028 72.2346 205.397 71.5Z" fill="#91C842"/>
<path d="M257.397 51.8557C260.397 52.3557 247.015 53.713 244.897 53.8557C243.897 53.3557 255.227 52.0547 257.397 51.8557Z" fill="#91C842"/>
<path d="M238.505 54.5259C236.922 55.3867 234.994 56.1544 232.666 56.8115C234.231 55.9448 236.194 55.1888 238.505 54.5259Z" fill="#91C842"/>
<path d="M245.442 53.2757C244.282 53.8068 242.75 54.2486 240.965 54.4592C242.165 53.8808 243.617 53.5336 245.442 53.2757Z" fill="#91C842"/>
<path d="M205.312 71.062C204.582 72.0734 203.523 73.1131 202.102 74.1535C202.822 73.1329 203.903 72.1116 205.312 71.062Z" fill="#91C842"/>
<path d="M209.405 68.1787C209.157 68.7664 208.593 69.3656 207.683 69.9185C207.921 69.3115 208.505 68.7508 209.405 68.1787Z" fill="#91C842"/>
<path d="M216.458 63.2715C216.194 63.8326 215.627 64.403 214.722 64.9258C214.975 64.3457 215.564 63.8133 216.458 63.2715Z" fill="#91C842"/>
<path d="M235.806 105.973C238.085 105.369 241.36 105.025 244.22 104.937C242.503 108.575 238.72 107.437 235.806 105.973Z" fill="#09819D"/>
<path d="M192.138 94.2849C192.667 92.9445 193.217 91.0241 194.475 90.2359C197.983 88.0384 201.786 86.3103 205.856 84.5206C201.654 87.8367 197.068 91.0292 192.138 94.2849Z" fill="#91C842"/>
<path d="M248.897 62.5C249.897 60.5 259.863 58.2821 262.817 57.4846C260.647 58.5082 251.848 61.6676 248.897 62.5Z" fill="#91C842"/>
<path d="M186.324 98.3781C185.225 95.4567 186.875 95.0029 189.685 95.3929C188.957 96.4243 187.8 97.3715 186.324 98.3781Z" fill="#91C842"/>
<path d="M210.285 82.397C210.802 81.7354 211.641 81.0399 212.843 80.4597C212.34 81.171 211.474 81.767 210.285 82.397Z" fill="#91C842"/>
<path d="M216.067 79.2113C216.36 78.6384 216.966 78.0512 217.929 77.588C217.651 78.207 217.015 78.702 216.067 79.2113Z" fill="#91C842"/>
<path d="M252.119 61.3303C252.32 60.964 252.847 60.5974 253.716 60.2913C253.521 60.6779 252.982 61.004 252.119 61.3303Z" fill="#91C842"/>
<path d="M208.999 83.2276C208.951 82.9838 209.166 82.7073 209.654 82.4259C209.706 82.679 209.484 82.9369 208.999 83.2276Z" fill="#91C842"/>
<path d="M207.066 84.3108C207.038 84.0596 207.288 83.7616 207.847 83.4832C207.885 83.7565 207.615 84.0103 207.066 84.3108Z" fill="#91C842"/>
<path d="M250.008 62.1208C250.022 61.8512 250.321 61.6232 250.909 61.446C250.897 61.7188 250.594 61.9406 250.008 62.1208Z" fill="#91C842"/>
<path d="M189.025 85.6923C189.139 85.9683 188.969 86.3604 188.459 86.7894C188.326 86.4869 188.535 86.1477 189.025 85.6923Z" fill="#91C842"/>
<path d="M188.397 86.5C187.939 87.7108 183.088 93.7542 181.958 95.0921C182.398 93.8495 187.286 87.8697 188.397 86.5Z" fill="#91C842"/>
<path d="M187.22 88.0195C186.802 88.9802 186.067 90.0278 184.979 91.088C185.385 90.1025 186.144 89.1045 187.22 88.0195Z" fill="#91C842"/>
<rect x="236.897" y="440" width="47" height="134" rx="23.5" transform="rotate(-90 236.897 440)" fill="#142D3F"/>
<rect x="234.897" y="242" width="48" height="198" rx="24" fill="#142D3F"/>
<rect x="382.897" y="283" width="45" height="157" rx="22.5" fill="#142D3F"/>
<rect x="382.897" y="229" width="45" height="42" rx="21" fill="#142D3F"/>
<rect x="461.897" y="283" width="45" height="157" rx="22.5" fill="#142D3F"/>
<rect x="563.859" y="448.37" width="45" height="180" rx="22.5" transform="rotate(-139 563.859 448.37)" fill="#142D3F"/>
<rect x="530.836" y="312.204" width="45" height="180" rx="22.5" transform="rotate(-40 530.836 312.204)" fill="#142D3F"/>
<rect x="461.897" y="229" width="45" height="42" rx="21" fill="#142D3F"/>
<path d="M425.897 186C425.897 172.193 437.089 161 450.897 161V161C464.704 161 475.897 172.193 475.897 186V189C475.897 202.807 464.704 214 450.897 214V214C437.089 214 425.897 202.807 425.897 189V187.5V186Z" fill="#153146"/>
<ellipse cx="109.397" cy="338.5" rx="106.5" ry="109.5" fill="#D9D9D9"/>
<path d="M148.896 400C189.397 437 107.846 474.251 43.0672 425.617C24.3141 411.538 5.89661 385.131 5.89661 365C5.89661 331.5 39.3966 288.5 71.3963 318.5C71.3963 322.573 148.896 368.883 148.896 400Z" fill="#7AC70A"/>
<path d="M211.056 322C216.494 336.5 221.97 367.128 190.397 409.5C157.238 454 75.0563 467.409 108.556 382C108.556 364.327 132.509 348.5 162.056 348.5C191.603 348.5 205.056 306 211.056 322Z" fill="#0CA96B"/>
<path d="M69.3965 236.5C115.994 220 157.808 230.831 186.897 262.5C224.478 303.416 234.887 381.437 149.49 347.861C131.819 347.861 115.994 323.854 115.994 294.24C115.994 264.625 53.2858 242.205 69.3965 236.5Z" fill="#06A2AD"/>
<path d="M7.39661 376C-9.10339 329.402 2.88728 287.069 34.5565 257.981C75.4722 220.4 153.493 209.991 119.918 295.388C119.918 313.058 95.9104 328.883 66.2962 328.883C36.6819 328.883 13.1013 392.111 7.39661 376Z" fill="#11B2CA"/>
<ellipse cx="120.897" cy="328.5" rx="60" ry="62.5" fill="white"/>
<ellipse cx="121.397" cy="328.5" rx="47.5" ry="48.5" fill="#07AA94"/>
<path d="M215.897 335C216.397 341 214.897 352 214.897 353C214.897 354.381 210.897 341.075 210.897 335C210.897 328.925 211.516 315.5 212.897 315.5C213.897 315 215.897 328.925 215.897 335Z" fill="#06A2AD"/>
<path d="M491.897 26.5C492.397 25.5 493.897 24.5 494.744 23.395C495.397 22.829 494.744 23.2449 494.744 23.2449C495.982 22.5016 497.021 21.6066 498.579 20.5137C499.143 20.0109 499.234 19.7934 499.173 19.5117C501.48 17.2729 503.788 15.034 506.245 12.4849C510.632 8.42831 514.868 4.68185 520.162 0C507.882 28.9838 481.001 60.7988 456.897 79.5C453.215 74.9276 451.995 79.0022 453.397 77C453.24 75.2053 452.539 78.6355 452.397 77C452.397 77 457.015 68.06 457.397 68C459.028 66.8949 468.446 53.7692 469.397 52.5C475.753 44.0137 482.397 33 490.897 29.5C478.397 38.5 490.897 27.5 491.897 26.5Z" fill="#1E4350"/>
</svg>
